<?xml version="1.0" encoding="utf-8"?>
<!-- Generator: Adobe Illustrator 14.0.0, SVG Export Plug-In . SVG Version: 6.00 Build 43363)  -->
<!DOCTYPE svg PUBLIC "-//W3C//DTD SVG 1.1//EN" "http://www.w3.org/Graphics/SVG/1.1/DTD/svg11.dtd">
<svg version="1.1" id="Layer_1" xmlns="http://www.w3.org/2000/svg" xmlns:xlink="http://www.w3.org/1999/xlink" x="0px" y="0px"
	 width="612px" height="612px" viewBox="0 0 612 612" enable-background="new 0 0 612 612" xml:space="preserve">
<rect fill="#FFEEE6" width="612" height="612"/>
<ellipse fill="#FFC6A7" cx="482" cy="307.75" rx="73.5" ry="68.749"/>
<ellipse fill="#FFC6A7" cx="164.125" cy="488.115" rx="58.125" ry="37.386"/>
<ellipse transform="matrix(0.9786 -0.2059 0.2059 0.9786 -92.5196 47.294)" fill="#854A2A" cx="181.017" cy="468.259" rx="4.476" ry="3.499"/>
<ellipse transform="matrix(0.9453 0.3261 -0.3261 0.9453 160.6839 -22.4776)" fill="#854A2A" cx="147.391" cy="468.072" rx="4.476" ry="3.499"/>
<g>
	<ellipse cx="178.291" cy="432.75" rx="6.708" ry="13"/>
	<ellipse fill="#FFFFFF" cx="180.668" cy="428.167" rx="2.417" ry="4.583"/>
</g>
<g>
	<ellipse cx="148.124" cy="432.75" rx="6.708" ry="13"/>
	<ellipse fill="#FFFFFF" cx="150.501" cy="428.167" rx="2.417" ry="4.583"/>
</g>
<path fill="#9D5A35" d="M266.167,356.667c-0.151-11.045-13.573-23.01-31.167-21.334c-17.5,1.667-31.333,13.121-31.333,24.167
	s13.827,13.5,31.5,13.5S266.333,368.833,266.167,356.667z"/>
<path fill="#9D5A35" d="M63.336,353.665c0.151-11.045,13.573-23.01,31.167-21.334c17.5,1.667,31.333,13.121,31.333,24.167
	s-13.827,13.5-31.5,13.5S63.169,365.831,63.336,353.665z"/>
<path fill="#9D9D9D" d="M44.799,261.42C42,251.667,35.62,250.953,30.833,253c-4.787,2.048-6.391,8.773-3.37,15.837
	c3.022,7.064,9.917,10.71,14.703,8.663C46.953,275.452,46.918,268.804,44.799,261.42z"/>
<path fill="#9D9D9D" d="M298.5,279.5c-5.55,0.663-8.188,5.44-7.497,8.224c0.692,2.783,5.265,5.797,9.372,4.776
	c4.107-1.021,9.191-6.217,8.5-9C308.183,280.716,302.702,278.998,298.5,279.5z"/>
<path fill="#686868" d="M85.375,18.875C70.63,18.248,53.875,26,53.25,33.75s21,18.625,32.375,18.625S118,43.875,118,35.75
	S97.125,19.375,85.375,18.875z"/>
<path fill="#686868" d="M230.5,32.833c-14.736,0.815-32,12.058-32,19.833c0,6.667,21.013,15.61,32.333,14.5
	s32.485-11.825,31.692-19.911C261.733,39.169,242.243,32.185,230.5,32.833z"/>
<path fill="#686868" d="M386.333,12.667c-14.747-0.59-34.427,10.093-35.166,17.833c-0.634,6.637,22.159,17.15,33.534,17.121
	c11.375-0.029,33.298-8.288,33.632-18.121S398.084,13.137,386.333,12.667z"/>
<path fill="#686868" d="M537.833,19.667c-14.747-0.59-31.333,7.333-31.5,13c-0.196,6.664,22.493,21.483,33.868,21.454
	c11.375-0.029,28.349-7.426,30.799-16.954C572.5,31.333,549.584,20.137,537.833,19.667z"/>
<path fill="#404040" d="M560.5,479.75c6.25-2.5,15.5-9,13-22.25s-12.5-10-17.5-16.25s7.75-10.75,1.25-22.75S542,407,534,414.25
	S520.75,424.5,512.75,425s-15.25,5.5-11.5,15.25s22,2.75,27.75,8.5s-4.5,19.25,6.75,27.5S554.25,482.25,560.5,479.75z"/>
<path fill="#404040" d="M426.5,463.5c8.359,5.5,23.75-6,31.5,3.25s14,37.5-29.25,40.5s-42.25-21.5-40.5-30.5S407.5,451,426.5,463.5z
	"/>
<path fill="#404040" d="M499.167,146.167c4.79-3.396,7.166-17.167,19.166-14.667c6.372,1.327,3.771,8.317,5.5,13.833
	c1.528,4.872,7.923,8.196,5.5,11.167c-5.166,6.333-12.334,2.833-16.5,8.333s-8.499,5.667-7.666,12.667s-7.666,12-13,4.167
	s-9.001-0.833-23.834-6.833s-10-17.5-0.333-23S490,152.667,499.167,146.167z"/>
<path fill="#404040" d="M532.333,189c0.508-6.584,6.166-8.167,12-7.667s7.5-3,9.667,2.5s-3.167,16.833-10.667,13
	S531.999,193.333,532.333,189z"/>
<path fill="#404040" d="M528.833,109.833c3.313,0.368,8.5,7.167,12,1.333S539,99.5,527,102s-11.667,9.167-6.5,10.333
	S524.333,109.333,528.833,109.833z"/>
<path fill="#404040" d="M424.833,102.667c9.271-1.274,13.667,10.5,18.834,15.333s0.499,18.333-16.334,21.167
	s-11.166-7.833-23.666-17.5S411.499,104.5,424.833,102.667z"/>
<path fill="#404040" d="M508.303,514.024c3.166-1.878,5.196-4.774,5.196-8.025c0-3.007-1.737-5.712-4.505-7.587
	c-2.441-1.654-5.685,1.088-9.244,1.088c-3.322,0-6.37-2.873-8.746-1.41c-3.057,1.88-5.005,4.725-5.005,7.909
	c0,3.146,1.901,5.96,4.894,7.84c2.393,1.504,5.233-1.089,8.607-1.089C502.733,512.75,505.955,515.417,508.303,514.024z"/>
<path fill="#404040" d="M442,429.5c6.733-2.476-1.25-5.149-1.25-9.25c0-7.456,7.896-17.5-9.5-17.5
	c-9.828,0-28.355,4.929-34.133,7.951c-4.448,2.328-8.367,7.305-8.367,10.549c0,7.456,15.354,11.5,32.75,11.5
	C429.328,432.75,436.49,431.526,442,429.5z"/>
<path fill="#404040" d="M486.751,446.25c0-2.183-4.239-6.774-6-8.25c-1.916-1.605-4.229-4.501-7.251-4.501
	c-5.799,0-12.499,6.194-12.499,10.751s6.7,5.749,12.499,5.749S486.751,450.807,486.751,446.25z"/>
<path fill="#404040" d="M168.119,189.983c-9.455,5.295-12.48,22.62-24.96,28.08c-12.48,5.46-16.38,18.72,0,27.3
	c16.38,8.58,26.52-24.96,46.02-21.061s33.541-6.574,24.181-23.177C203.999,184.523,187.619,179.063,168.119,189.983z"/>
<path fill="#404040" d="M114.415,134.834c29.371-5.658,42.02-29.017,50.649-4.837c8.63,24.181,2.659,56.16-36.865,44.46
	C88.675,162.757,93.354,138.891,114.415,134.834z"/>
</svg>
